# xmcd
#
# Track frame offsets:
#       150
#       17977
#       28529
#       44576
#       60465
#       72756
#       85542
#       101889
#       113922
#       124479
#       139024
#       152811
#       166395
#       180838
#       196461
#       210243
#
# Disc length: 2976 seconds
#
# Revision: 1
# Processed by: cddbd v1.5.2PL0 Copyright (c) Steve Scherf et al.
# Submitted via: WaveLab 4.01
#
DISCID=d70b9e10
DTITLE=Ole Erling - Hammon Pops CD1
DYEAR=2005
DGENRE=
TTITLE0=01 Rør Ved Mig
TTITLE1=02 Det Er Vores Bryllupsdag I Dag
TTITLE2=03 Vi Får Solskin I Morgen
TTITLE3=04 Eviva Espana
TTITLE4=05 Ring Ring
TTITLE5=06 Vi Er Allesammen Venner
TTITLE6=07 Bind Dit Gule Hårbånd
TTITLE7=08 Min Kone Er Så Smart
TTITLE8=09 Det Er Mig Du Vil Have
TTITLE9=10 Matrimony
TTITLE10=11 Song Song Blue
TTITLE11=12 Tom Tom Tom
TTITLE12=13 Ich Bin Wie Du
TTITLE13=14 Dancing Queen
TTITLE14=15 Save Your Kisses For Me
TTITLE15=16 Ain't That Just The Way
EXTD=
EXTT0=
EXTT1=
EXTT2=
EXTT3=
EXTT4=
EXTT5=
EXTT6=
EXTT7=
EXTT8=
EXTT9=
EXTT10=
EXTT11=
EXTT12=
EXTT13=
EXTT14=
EXTT15=
PLAYORDER=
